<?xml version="1.0" encoding="utf-8"?>
<!-- Generator: Adobe Illustrator 17.0.0, SVG Export Plug-In . SVG Version: 6.00 Build 0)  -->
<!DOCTYPE svg PUBLIC "-//W3C//DTD SVG 1.1//EN" "http://www.w3.org/Graphics/SVG/1.1/DTD/svg11.dtd">
<svg version="1.1" id="Layer_1" xmlns="http://www.w3.org/2000/svg" xmlns:xlink="http://www.w3.org/1999/xlink" x="0px" y="0px"
	 width="150.748px" height="169.873px" viewBox="0 0 150.748 169.873" enable-background="new 0 0 150.748 169.873"
	 xml:space="preserve">
<g>
	<g>
		<path fill="#D20A11" d="M72.964,30.455c0,0,1.248,4.998-0.866,7.689c-2.114,2.692-2.308,5.383-2.114,8.843
			c0.193,3.46,2.308,8.168,0,9.899c-2.307,1.731-2.307,1.731-2.307,1.731l-1.248,0.575c0,0,0.191-2.786-0.578-3.94
			c-0.768-1.154-2.31-3.749-1.923-5.094c0.387-1.346,0.771-4.709-1.153-6.247c-1.923-1.538-1.346-5.767-1.346-5.767
			s-2.787,4.23-2.019,7.209c0.768,2.979,0.58,4.902,0.098,6.44c-0.482,1.538-0.384,3.843,0.768,5.766
			c1.153,1.924,1.25,4.134,0.673,5.671c-0.578,1.537-0.962,1.923-0.962,1.923s-3.558-1.923-4.71-3.174
			c-1.153-1.248-2.403-3.362-3.844-4.324c-1.441-0.962-1.441-0.962-1.441-0.962s-1.825-2.114-2.019-3.844
			c-1.25,4.23,2.501,9.227,3.653,11.439c1.153,2.21,1.63,4.228,1.344,4.708c-0.286,0.48-3.558,1.153-5.863-1.346
			c-2.305-2.498-3.364-4.999-3.364-4.999s0.871,6.342,2.503,8.17c1.632,1.828,4.035,3.748,4.035,4.997
			c0,1.25-0.191,6.056,2.307,7.69c2.498,1.635,3.846,4.135,4.615,7.113c0.768,2.978,2.114,5.094,7.304,5.863
			c5.19,0.768,7.979,1.825,9.805,4.612c1.537-2.692,4.037-3.844,7.593-4.419c3.555-0.577,7.884-1.635,9.516-6.247
			c1.632-4.615,2.112-6.824,4.899-9.805c2.787-2.98,4.226-5.572,3.939-9.034c-0.286-3.462-2.303-9.418-1.343-12.496
			c-1.251,0.387-1.635,2.692-1.923,5.095c-0.289,2.403-0.096,4.808-2.787,4.999c0.48-3.749,0.289-6.44-0.384-8.843
			s-0.673-2.403-0.673-2.403s-1.248-2.98-1.057-5.094c0.191-2.114,0.384-3.652,0.384-3.652s-2.501,2.306-2.501,6.344
			c0,4.037,0.484,8.266-0.286,9.611c-0.771,1.346-4.903,1.632-4.326-2.21c0.577-3.847,2.98-9.516,1.346-11.727
			c-1.635-2.211-5.765-6.248-5.19-9.708c-1.539,3.364,0.578,6.536,1.441,8.746c0.864,2.211-0.093,3.652-0.48,4.998
			c-0.387,1.346-1.25,2.115-1.25,2.115s-4.324-5.959-4.228-11.438c0.096-5.479,0.573-8.361-0.387-10.476
			C75.656,33.338,72.964,30.455,72.964,30.455z"/>
		<g>
			<g>
				<path fill="#D20A11" d="M55.631,13.199c0,0,3.131,5.001,0.611,11.186c-2.52,6.185-13.897,20.158-16.875,24.51
					c-2.978,4.352-5.803,10.117-5.803,16.951c0,6.834,5.612,15.233,8.59,18.478c2.978,3.245,8.552,8.552,10.041,9.545
					c1.489,0.992,2.291,2.825,0.84,4.199c-1.451,1.374-3.551,2.1-3.551,2.1s4.391,4.238,5.612,5.192
					c1.222,0.954,7.636,6.032,7.139,10.423c-0.496,4.391-3.283,6.529-3.283,6.529s1.451,2.291,2.443,3.054
					c0.993,0.764,0.993,0.764,0.993,0.764s0,2.863-1.183,4.047c-1.184,1.183-1.184,1.183-1.184,1.183s-3.703,1.336-5.803,0.993
					c-2.1-0.344-5.345-3.283-6.529-7.407c0,0-2.291,1.069-5.688,0.038c-3.398-1.031-5.765-5.689-5.956-8.323
					c-2.023,0.496-8.018-0.038-12.408-4.352c-4.391-4.314-0.84-12.141-0.84-12.141s-7.903-8.323-9.736-15.119
					c-1.833-6.796-1.374-12.751,1.069-19.776c-1.68-7.101,0-14.813,3.054-20.005s3.36-7.865,3.36-7.865s2.443,2.367,2.749,3.054
					c0.535-2.443,1.604-4.887,3.054-6.948c1.451-2.062,2.443-4.581,2.443-4.581s0.229,3.283,0.84,3.283s2.138-3.436,2.902-4.505
					c0.764-1.069,1.909-1.451,1.909-1.451l-0.076,3.742c0,0,2.902-3.665,4.276-4.581c1.374-0.916,1.374-0.916,1.374-0.916
					l2.214-2.825c0,0,0.153,2.749,0.153,3.283c0,0.534,0,0.534,0,0.534l-0.153,0.611c0,0,4.505-3.207,6.032-4.734
					C49.79,19.842,53.531,17.704,55.631,13.199z"/>
				<g>
					<path fill="#FFD500" d="M55.204,20.477c0,0,0,4.195-4.414,10.56c-5.016,7.231-19.168,22.133-19.168,34.14
						c0,12.01,15.26,27.126,18.008,28.934c2.749,1.809,1.809,2.823,0.217,3.908c-1.591,1.083-3.402,2.386-1.086,4.41
						c2.317,2.028,13.31,9.115,11.647,13.816c-1.663,4.703-3.832,3.98-3.832,3.98s0.94,4.486,2.603,5.498
						c1.663,1.012,1.3,4.557-2.171,4.992c-3.472,0.434-6.218,0.072-8.678-6.944c0,0,3.766-5.135,2.1-9.621
						c-1.665-4.486-5.28-6.944-5.426-7.595c-0.146-0.651-0.146-0.651-0.146-0.651v-0.363v-0.721c0,0-0.721,1.518-0.36,2.315
						c0.36,0.795,0.36,0.795,0.36,0.795l0,0c0,0,4.777,4.34,4.849,7.161c0.072,2.82-1.234,7.378-2.317,8.318
						c0,0-2.677,1.16-4.846,0.651c-2.169-0.508-5.786-4.631-5.135-9.115c0.651-4.484,2.675-7.521,3.761-9.547
						c1.086-2.026,1.086-2.026,1.086-2.026l0.363-2.241c0,0-5.498-3.617-6.438-6.584c-0.94-2.966-1.883-6.438-1.883-6.438
						s-7.669-6.872-8.03-10.633c-0.36-3.761-0.217-10.344-0.217-10.344s-3.543-9.33,2.894-17.142
						c6.438-7.812,16.923-16.833,20.762-21.34C53.033,24.745,54.262,22.864,55.204,20.477z"/>
					<path fill="#FFD500" d="M55.211,19.957c0,0-4.276,6.741-6.736,9.055c-2.46,2.315-9.039,9.042-12.656,12.153
						c-3.617,3.11-14.83,13.02-10.924,25.606c0,0,0.363,11.067,0.506,11.43c0.143,0.36,0.143,0.36,0.143,0.36
						s3.474,6.364,7.669,9.909c0.36,5.932,6.075,11.647,8.607,12.876c0,2.243-1.589,4.486-3.109,6.943
						c-1.52,2.46-2.749,5.209-2.532,6.944c-3.112,0.074-9.755-0.556-11.792-3.978c-2.274-3.82-1.446-5.424-0.795-8.027
						c0.651-2.603,1.157-2.677,0.651-3.617c-0.506-0.94-1.592-2.097-1.592-2.097l-0.434-4.992c0,0-0.651,2.386-1.52,2.171
						c-0.868-0.219-1.878-2.606,0.074-8.318c-2.171,2.167-2.462,4.915-3.474,3.975c-1.012-0.94-0.792-4.701,0.725-7.812
						c-1.954,0.869-2.751,2.894-3.257,1.374c-0.506-1.518,0-3.613,1.374-6.001c1.374-2.388,2.1-4.412,2.1-4.412
						s-3.98,4.701-4.197,4.123c-0.217-0.58,1.377-4.846,1.737-5.569c0.36-0.725,0.506-1.088,0.506-1.088l1.086-2.095
						c0,0-2.966,2.026-2.966,1.446c0-0.577,0-0.577,0-0.577l1.374-4.195c0,0-1.811-4.92-0.291-10.49
						c1.52-5.569,5.066-11.935,5.572-14.323c1.518,1.519,1.883,2.966,2.749,3.183c1.083-2.243,1.446-5.569,3.109-7.957
						c0.94,0.362,1.231,2.315,1.231,2.315s3.038-4.846,3.326-5.859c0.289-1.013,1.014-1.953,1.014-1.953l0.289,3.906
						c0,0,2.386-3.473,4.918-5.787c2.532-2.315,3.329-2.893,3.329-2.893l-0.506,3.762c0,0,4.193-2.749,7.521-5.498
						s7.209-6.971,7.209-6.971s0.114,1.374,0.114,1.871C55.364,19.346,55.211,19.957,55.211,19.957z"/>
				</g>
			</g>
			<g>
				<path fill="#D20A11" d="M93.79,13.199c0,0-3.13,5.001-0.611,11.186c2.52,6.185,13.897,20.158,16.875,24.51
					c2.978,4.352,5.803,10.117,5.803,16.951c0,6.834-5.612,15.233-8.59,18.478c-2.978,3.245-8.552,8.552-10.041,9.545
					c-1.489,0.992-2.291,2.825-0.84,4.199c1.451,1.374,3.551,2.1,3.551,2.1s-4.39,4.238-5.612,5.192
					c-1.222,0.954-7.636,6.032-7.139,10.423c0.496,4.391,3.283,6.529,3.283,6.529s-1.451,2.291-2.443,3.054
					c-0.993,0.764-0.993,0.764-0.993,0.764s0,2.863,1.184,4.047c1.183,1.183,1.183,1.183,1.183,1.183s3.703,1.336,5.803,0.993
					c2.1-0.344,5.345-3.283,6.529-7.407c0,0,2.291,1.069,5.688,0.038c3.398-1.031,5.765-5.689,5.956-8.323
					c2.024,0.496,8.018-0.038,12.408-4.352c4.39-4.314,0.84-12.141,0.84-12.141s7.903-8.323,9.736-15.119
					c1.833-6.796,1.374-12.751-1.069-19.776c1.68-7.101,0-14.813-3.054-20.005s-3.36-7.865-3.36-7.865s-2.443,2.367-2.749,3.054
					c-0.535-2.443-1.604-4.887-3.054-6.948c-1.451-2.062-2.443-4.581-2.443-4.581s-0.229,3.283-0.84,3.283
					c-0.611,0-2.138-3.436-2.902-4.505c-0.764-1.069-1.909-1.451-1.909-1.451l0.076,3.742c0,0-2.902-3.665-4.276-4.581
					c-1.374-0.916-1.374-0.916-1.374-0.916l-2.214-2.825c0,0-0.153,2.749-0.153,3.283c0,0.534,0,0.534,0,0.534l0.153,0.611
					c0,0-4.505-3.207-6.032-4.734C99.632,19.842,95.89,17.704,93.79,13.199z"/>
				<g>
					<path fill="#FFD500" d="M94.218,20.477c0,0,0,4.195,4.415,10.56c5.016,7.231,19.168,22.133,19.168,34.14
						c0,12.01-15.259,27.126-18.008,28.934c-2.749,1.809-1.809,2.823-0.217,3.908c1.592,1.083,3.403,2.386,1.086,4.41
						c-2.317,2.028-13.31,9.115-11.647,13.816c1.663,4.703,3.832,3.98,3.832,3.98s-0.94,4.486-2.603,5.498
						c-1.663,1.012-1.301,4.557,2.171,4.992c3.472,0.434,6.218,0.072,8.678-6.944c0,0-3.765-5.135-2.1-9.621
						c1.666-4.486,5.28-6.944,5.426-7.595c0.146-0.651,0.146-0.651,0.146-0.651v-0.363v-0.721c0,0,0.721,1.518,0.36,2.315
						c-0.36,0.795-0.36,0.795-0.36,0.795l0,0c0,0-4.777,4.34-4.849,7.161c-0.072,2.82,1.234,7.378,2.317,8.318
						c0,0,2.677,1.16,4.846,0.651c2.169-0.508,5.786-4.631,5.135-9.115c-0.651-4.484-2.675-7.521-3.76-9.547
						c-1.086-2.026-1.086-2.026-1.086-2.026l-0.363-2.241c0,0,5.498-3.617,6.438-6.584c0.94-2.966,1.883-6.438,1.883-6.438
						s7.669-6.872,8.029-10.633c0.36-3.761,0.217-10.344,0.217-10.344s3.543-9.33-2.894-17.142
						c-6.438-7.812-16.923-16.833-20.762-21.34C96.389,24.745,95.16,22.864,94.218,20.477z"/>
					<path fill="#FFD500" d="M94.21,19.957c0,0,4.276,6.741,6.736,9.055c2.46,2.315,9.039,9.042,12.656,12.153
						c3.617,3.11,14.83,13.02,10.924,25.606c0,0-0.363,11.067-0.506,11.43c-0.143,0.36-0.143,0.36-0.143,0.36
						s-3.474,6.364-7.669,9.909c-0.36,5.932-6.075,11.647-8.607,12.876c0,2.243,1.589,4.486,3.109,6.943
						c1.52,2.46,2.749,5.209,2.532,6.944c3.112,0.074,9.755-0.556,11.792-3.978c2.274-3.82,1.446-5.424,0.795-8.027
						c-0.651-2.603-1.157-2.677-0.651-3.617s1.592-2.097,1.592-2.097l0.434-4.992c0,0,0.651,2.386,1.52,2.171
						c0.869-0.219,1.878-2.606-0.074-8.318c2.171,2.167,2.462,4.915,3.474,3.975c1.012-0.94,0.792-4.701-0.725-7.812
						c1.954,0.869,2.751,2.894,3.257,1.374c0.506-1.518,0-3.613-1.374-6.001c-1.374-2.388-2.1-4.412-2.1-4.412
						s3.98,4.701,4.197,4.123c0.217-0.58-1.377-4.846-1.737-5.569c-0.36-0.725-0.506-1.088-0.506-1.088l-1.086-2.095
						c0,0,2.966,2.026,2.966,1.446c0-0.577,0-0.577,0-0.577l-1.374-4.195c0,0,1.811-4.92,0.291-10.49
						c-1.52-5.569-5.066-11.935-5.572-14.323c-1.517,1.519-1.883,2.966-2.749,3.183c-1.083-2.243-1.446-5.569-3.109-7.957
						c-0.94,0.362-1.231,2.315-1.231,2.315s-3.038-4.846-3.326-5.859c-0.289-1.013-1.014-1.953-1.014-1.953l-0.289,3.906
						c0,0-2.386-3.473-4.918-5.787c-2.532-2.315-3.329-2.893-3.329-2.893l0.506,3.762c0,0-4.192-2.749-7.521-5.498
						c-3.329-2.749-7.209-6.971-7.209-6.971s-0.115,1.374-0.115,1.871C94.058,19.346,94.21,19.957,94.21,19.957z"/>
				</g>
			</g>
		</g>
		<g>
			<path fill="#FFFFFF" d="M74.966,94.853c4.806-5.863,11.246-4.71,11.246-4.71c-1.441-3.653-7.015-1.73-7.015-1.73
				s-0.098-2.978,6.247-3.651c-2.882-3.269-8.17-0.482-8.17-0.482s0.962-0.482,0.962-4.996c0-4.52-3.269-7.979-3.269-7.979h-0.079
				c0,0-3.269,3.46-3.269,7.979c0,4.514,0.961,4.996,0.961,4.996s-5.288-2.787-8.17,0.482c6.345,0.673,6.247,3.651,6.247,3.651
				s-5.574-1.923-7.015,1.73c0,0,6.44-1.153,11.246,4.71H74.966z"/>
		</g>
		<path fill="#FFFFFF" d="M84.821,107.938c-4.872,0-9.048,3.469-10.029,8.196c-0.01,0-0.014,0-0.024,0
			c-0.981-4.727-5.154-8.196-10.027-8.196c-5.672,0-10.286,4.615-10.286,10.287c0,5.672,4.615,10.286,10.286,10.286
			c0.005,0,0.007,0,0.012,0c0.981,4.727,5.154,8.196,10.027,8.196c4.87,0,9.044-3.469,10.024-8.196c0.007,0,0.012,0,0.017,0
			c5.669,0,10.282-4.615,10.282-10.286C95.103,112.553,90.49,107.938,84.821,107.938z M64.741,112.045
			c2.964,0,5.45,2.085,6.023,4.949c-3.123,1.332-5.364,4.085-6.03,7.412c-3.405-0.002-6.178-2.773-6.178-6.18
			C58.557,114.818,61.332,112.045,64.741,112.045z M74.78,132.604c-2.964,0-5.45-2.09-6.022-4.954
			c3.114-1.324,5.352-4.066,6.022-7.38c0.67,3.314,2.909,6.058,6.025,7.38C80.23,130.514,77.741,132.604,74.78,132.604z
			 M84.823,124.405c-0.666-3.326-2.906-6.082-6.03-7.412c0.575-2.863,3.064-4.951,6.027-4.951c3.407,0,6.18,2.775,6.18,6.183
			C91.001,121.632,88.228,124.405,84.823,124.405z"/>
	</g>
	<g>
		<g>
			<g>
				<path fill="#FFFFFF" d="M84.821,127.655c-5.204,0-9.435-4.228-9.435-9.43c0-5.202,4.231-9.43,9.435-9.43
					c5.197,0,9.428,4.228,9.428,9.43C94.249,123.427,90.018,127.655,84.821,127.655L84.821,127.655z M84.821,111.186
					c-3.885,0-7.041,3.159-7.041,7.039c0,3.88,3.157,7.037,7.041,7.037c3.875,0,7.034-3.157,7.034-7.037
					C91.855,114.345,88.696,111.186,84.821,111.186L84.821,111.186z"/>
			</g>
			<g>
				<path fill="#FFFFFF" d="M74.78,135.854c-5.199,0-9.432-4.233-9.432-9.435c0-5.2,4.233-9.43,9.432-9.43
					c5.2,0,9.43,4.233,9.43,9.43C84.21,131.621,79.98,135.854,74.78,135.854L74.78,135.854z M74.78,119.38
					c-3.885,0-7.037,3.159-7.037,7.039c0,3.885,3.152,7.039,7.037,7.039c3.88,0,7.039-3.154,7.039-7.039
					C81.819,122.539,78.66,119.38,74.78,119.38L74.78,119.38z"/>
			</g>
			<g>
				<g>
					<path fill="#FFFFFF" d="M64.741,127.655c-5.199,0-9.432-4.228-9.432-9.43c0-5.202,4.233-9.43,9.432-9.43
						c5.2,0,9.433,4.228,9.433,9.43C74.174,123.427,69.941,127.655,64.741,127.655L64.741,127.655z M64.741,111.188
						c-3.88,0-7.039,3.154-7.039,7.037c0,3.88,3.159,7.037,7.039,7.037s7.037-3.157,7.037-7.037
						C71.778,114.345,68.621,111.188,64.741,111.188L64.741,111.188z"/>
				</g>
			</g>
		</g>
		<path fill="#D20A11" d="M72.017,119.957c-0.783,3.293-3.742,5.755-7.275,5.755c-4.13,0-7.485-3.36-7.485-7.488
			c0-4.128,3.355-7.488,7.485-7.488c3.837,0,7.001,2.904,7.431,6.624c0.477-0.133,0.966-0.234,1.47-0.296
			c-0.577-4.407-4.34-7.822-8.9-7.822c-4.954,0-8.986,4.028-8.986,8.981c0,4.954,4.033,8.981,8.986,8.981
			c4.522,0,8.268-3.364,8.886-7.721C73.064,119.578,72.525,119.738,72.017,119.957z"/>
		<g>
			<path fill="#D20A11" d="M74.78,118.931c0.215,0,0.43,0.017,0.644,0.036c-0.024-0.246-0.038-0.494-0.038-0.742
				c0-0.253,0.012-0.506,0.038-0.754c-0.215-0.014-0.43-0.033-0.644-0.033c-4.524,0-8.27,3.364-8.883,7.726
				c0.558-0.091,1.098-0.248,1.603-0.465C68.283,121.399,71.246,118.931,74.78,118.931z"/>
			<path fill="#D20A11" d="M77.799,117.972c-0.005,0.084-0.019,0.165-0.019,0.253c0,0.487,0.062,0.959,0.155,1.417
				c2.556,1.193,4.333,3.78,4.333,6.777c0,4.128-3.36,7.488-7.488,7.488c-3.834,0-7.006-2.902-7.435-6.624
				c-0.47,0.138-0.962,0.236-1.463,0.301c0.573,4.4,4.338,7.822,8.898,7.822c4.951,0,8.981-4.033,8.981-8.986
				C83.761,122.53,81.268,119.213,77.799,117.972z"/>
		</g>
		<path fill="#D20A11" d="M84.821,109.244c-4.956,0-8.986,4.028-8.986,8.981c0,3.894,2.493,7.206,5.97,8.451
			c0.002-0.086,0.014-0.172,0.014-0.258c0-0.487-0.067-0.957-0.162-1.417c-2.553-1.198-4.328-3.78-4.328-6.777
			c0-4.128,3.365-7.488,7.492-7.488c4.128,0,7.485,3.36,7.485,7.488c0,4.128-3.357,7.488-7.485,7.488
			c-0.217,0-0.434-0.014-0.649-0.033c0.022,0.243,0.038,0.492,0.038,0.74c0,0.258-0.012,0.511-0.033,0.754
			c0.21,0.017,0.427,0.033,0.644,0.033c4.949,0,8.981-4.028,8.981-8.981C93.802,113.271,89.77,109.244,84.821,109.244z"/>
	</g>
</g>
<g>
	<path d="M24.277,143.571l6.819-10.933l1.987,1.239l-6.819,10.933L24.277,143.571z"/>
	<path d="M30.09,147.087l5.361-11.717l2.072,0.948l0.736,9.799l3.58-7.824l1.978,0.905l-5.361,11.717l-2.137-0.978l-0.755-9.586
		l-3.496,7.641L30.09,147.087z"/>
	<path d="M46.551,140.202l4.116,1.172c0.928,0.264,1.613,0.545,2.055,0.841c0.593,0.4,1.045,0.94,1.356,1.62
		c0.311,0.68,0.475,1.45,0.493,2.311c0.018,0.861-0.138,1.872-0.469,3.033c-0.291,1.021-0.655,1.866-1.093,2.54
		c-0.536,0.822-1.142,1.438-1.818,1.849c-0.511,0.312-1.132,0.491-1.864,0.539c-0.547,0.033-1.236-0.069-2.068-0.306l-4.237-1.207
		L46.551,140.202z M48.205,142.939l-2.337,8.208l1.682,0.479c0.629,0.18,1.094,0.27,1.396,0.27c0.394,0.003,0.746-0.083,1.056-0.257
		s0.62-0.517,0.93-1.028c0.311-0.512,0.602-1.246,0.875-2.204c0.273-0.958,0.406-1.716,0.4-2.271
		c-0.006-0.556-0.105-1.017-0.297-1.383c-0.192-0.365-0.484-0.658-0.876-0.88c-0.292-0.168-0.897-0.383-1.815-0.645L48.205,142.939z
		"/>
	<path d="M56.969,149.76c0.169-1.301,0.486-2.371,0.952-3.208c0.346-0.617,0.779-1.154,1.299-1.613
		c0.52-0.458,1.064-0.777,1.636-0.957c0.76-0.244,1.608-0.305,2.544-0.183c1.694,0.22,2.974,0.98,3.839,2.28s1.163,2.99,0.893,5.07
		c-0.269,2.063-0.983,3.611-2.144,4.645c-1.161,1.034-2.586,1.441-4.275,1.222c-1.71-0.223-2.995-0.979-3.853-2.27
		C57.001,153.456,56.704,151.794,56.969,149.76z M59.372,149.985c-0.188,1.446-0.03,2.582,0.474,3.407
		c0.504,0.825,1.219,1.297,2.145,1.418c0.926,0.12,1.733-0.151,2.423-0.815c0.689-0.663,1.131-1.736,1.324-3.218
		c0.19-1.464,0.043-2.594-0.441-3.39c-0.484-0.796-1.205-1.256-2.162-1.38c-0.957-0.125-1.776,0.14-2.456,0.793
		C59.999,147.453,59.564,148.514,59.372,149.985z"/>
	<path d="M71.467,157.686l-0.158-12.884l2.278-0.028l4.851,8.546l-0.105-8.604l2.176-0.026l0.158,12.884l-2.35,0.029l-4.778-8.345
		l0.104,8.401L71.467,157.686z"/>
	<path d="M85.392,157.18l-1.938-12.737l8.501-1.294l0.328,2.155l-6.187,0.94l0.43,2.824l5.756-0.876l0.327,2.146l-5.756,0.876
		l0.527,3.467l6.404-0.975l0.327,2.146L85.392,157.18z"/>
	<path d="M96.568,151.034l2.102-0.912c0.384,0.771,0.835,1.284,1.354,1.54s1.117,0.278,1.797,0.067
		c0.721-0.225,1.211-0.563,1.471-1.015c0.26-0.451,0.319-0.904,0.178-1.357c-0.09-0.291-0.244-0.515-0.461-0.671
		s-0.541-0.251-0.971-0.283c-0.293-0.02-0.945-0.013-1.957,0.02c-1.301,0.043-2.268-0.102-2.901-0.433
		c-0.89-0.465-1.486-1.185-1.789-2.158c-0.195-0.627-0.218-1.263-0.067-1.907c0.15-0.646,0.481-1.204,0.995-1.677
		c0.513-0.473,1.195-0.841,2.046-1.105c1.39-0.433,2.541-0.419,3.454,0.04c0.913,0.458,1.563,1.247,1.949,2.366l-2.201,0.805
		c-0.293-0.603-0.64-0.993-1.04-1.173c-0.4-0.179-0.916-0.171-1.545,0.025c-0.65,0.202-1.112,0.508-1.388,0.919
		c-0.178,0.264-0.217,0.556-0.118,0.874c0.091,0.291,0.279,0.506,0.565,0.644c0.363,0.176,1.134,0.236,2.31,0.184
		c1.177-0.053,2.073-0.008,2.688,0.136c0.616,0.143,1.154,0.433,1.613,0.869c0.459,0.438,0.809,1.045,1.051,1.823
		c0.22,0.704,0.248,1.42,0.087,2.145c-0.161,0.726-0.518,1.338-1.068,1.837c-0.552,0.5-1.309,0.899-2.271,1.198
		c-1.399,0.436-2.587,0.41-3.561-0.075S97.141,152.365,96.568,151.034z"/>
	<path d="M110.529,150.608l-5.307-11.741l2.134-0.964l5.307,11.74L110.529,150.608z"/>
	<path d="M125.612,141.983l-2.135,1.391l-2.445-1.9l-3.885,2.529l0.795,2.975l-2.081,1.355l-3.246-13.262l2.075-1.352
		L125.612,141.983z M119.218,140.064l-3.947-3.135l1.296,4.861L119.218,140.064z"/>
</g>
</svg>
